<svg width="26" height="24" viewBox="0 0 26 24" fill="none" xmlns="http://www.w3.org/2000/svg">
<path d="M12.619 2.91654L13 3.36505L13.381 2.91654C14.6647 1.40566 16.5968 0.5 18.6647 0.5C22.4492 0.5 25.5 3.47396 25.5 7.09364C25.5 9.96047 23.7224 13.3829 20.024 17.2791C17.1884 20.2665 14.0983 22.5839 13.2207 23.2215L12.9998 23.382L12.7789 23.2214C11.9014 22.5839 8.81147 20.2666 5.97579 17.279L5.61314 17.6233L5.97579 17.279C2.27756 13.3828 0.5 9.96042 0.5 7.09364C0.5 3.47396 3.55085 0.5 7.33531 0.5C9.40323 0.5 11.3353 1.40566 12.619 2.91654Z" fill="white" stroke="#69BACF"/>
</svg>
