<svg width="39" height="39" viewBox="0 0 39 39" fill="none" xmlns="http://www.w3.org/2000/svg">
<g clip-path="url(#clip0_4_89)">
<path d="M13.8121 17.4696H3.65625C1.64044 17.4696 0 15.8291 0 13.8133V3.65625C0 1.64044 1.64044 0 3.65625 0H13.8121C15.8279 0 17.4683 1.64044 17.4683 3.65625V13.8133C17.4683 15.8291 15.8291 17.4696 13.8121 17.4696ZM35.3438 17.4696H25.1867C23.1709 17.4696 21.5304 15.8291 21.5304 13.8133V3.65625C21.5304 1.64044 23.1709 0 25.1867 0H35.3438C37.3596 0 39 1.64044 39 3.65625V13.8133C39 15.8291 37.3596 17.4696 35.3438 17.4696ZM13.8121 38.9244H3.65625C1.64044 38.9244 0 37.284 0 35.2682V25.1111C0 23.0953 1.64044 21.4549 3.65625 21.4549H13.8121C15.8279 21.4549 17.4683 23.0953 17.4683 25.1111V35.2682C17.4683 37.284 15.8291 38.9244 13.8121 38.9244ZM35.3438 38.9244H25.1867C23.1709 38.9244 21.5304 37.284 21.5304 35.2682V25.1111C21.5304 23.0953 23.1709 21.4549 25.1867 21.4549H35.3438C37.3596 21.4549 39 23.0953 39 25.1111V35.2682C39 37.284 37.3596 38.9244 35.3438 38.9244Z" fill="#69BACF"/>
</g>
<defs>
<clipPath id="clip0_4_89">
<rect width="39" height="39" fill="white"/>
</clipPath>
</defs>
</svg>
