<svg width="28" height="28" viewBox="0 0 28 28" fill="none" xmlns="http://www.w3.org/2000/svg">
<path d="M14.4754 0C7.00999 0 0.951172 6.05882 0.951172 13.5242C0.951172 20.9895 7.00999 27.0484 14.4754 27.0484C21.9408 27.0484 27.9996 20.9895 27.9996 13.5242C27.9996 6.05882 21.9408 0 14.4754 0ZM14.4754 5.40968C16.2515 5.40968 17.6942 6.85225 17.6942 8.62846C17.6942 10.4046 16.2515 11.8562 14.4754 11.8562C12.6992 11.8562 11.2566 10.4046 11.2566 8.62846C11.2566 6.85225 12.6992 5.40968 14.4754 5.40968ZM18.5146 21.6387H10.4362C9.18291 21.6387 8.16408 20.6199 8.16408 19.3667C8.16408 15.8864 10.9952 13.0554 14.4754 13.0554C17.9556 13.0554 20.7867 15.8864 20.7867 19.3667C20.7867 20.6199 19.7679 21.6387 18.5146 21.6387Z" fill="#69BACF"/>
</svg>
