<svg width="36" height="36" viewBox="0 0 36 36" fill="none" xmlns="http://www.w3.org/2000/svg">
<path d="M24.0304 4.11656C18.5417 -1.37219 9.60923 -1.37219 4.11656 4.11656C-1.37219 9.60727 -1.37219 18.5417 4.11656 24.0304C6.77646 26.6903 10.3125 28.1558 14.0745 28.1558C17.1558 28.1558 20.0766 27.1583 22.4964 25.341L32.5661 35.4107C32.959 35.8036 33.4737 36 33.9884 36C34.5031 36 35.0178 35.8036 35.4107 35.4107C36.1964 34.6249 36.1964 33.3519 35.4107 32.5661L25.341 22.4964C27.1583 20.0767 28.1558 17.1558 28.1558 14.0745C28.1558 10.3125 26.6903 6.77646 24.0304 4.11656ZM6.96112 21.1859C3.04003 17.2648 3.04003 10.8842 6.96112 6.96112C8.92167 5.00057 11.4991 4.0203 14.0745 4.0203C16.6499 4.0203 19.2253 5.00057 21.1859 6.96112C23.0855 8.86077 24.1326 11.3871 24.1326 14.0745C24.1326 16.7599 23.0855 19.2862 21.1859 21.1859C19.2862 23.0855 16.7599 24.1326 14.0745 24.1326C11.3871 24.1326 8.86077 23.0855 6.96112 21.1859Z" fill="#69BACF"/>
</svg>
