<svg width="43" height="39" viewBox="0 0 43 39" fill="none" xmlns="http://www.w3.org/2000/svg">
<path d="M35.475 23.8C33.0579 23.8 30.9267 24.9659 29.5489 26.7429L14.9923 21.1442C15.007 20.953 15.05 20.7699 15.05 20.5751C15.05 20.2134 14.9927 19.8671 14.9431 19.519L29.8597 12.6336C31.2396 14.1944 33.2331 15.2001 35.4749 15.2001C39.6237 15.2001 42.9999 11.8239 42.9999 7.67508C42.9999 3.52622 39.6237 0.150055 35.4749 0.150055C31.326 0.150055 27.9499 3.52612 27.9499 7.67498C27.9499 8.03669 28.0072 8.38297 28.0568 8.73107L13.1403 15.6164C11.7603 14.0556 9.7668 13.0499 7.52503 13.0499C3.37617 13.0499 0 16.4261 0 20.575C0 24.7238 3.37617 28.1 7.52503 28.1C9.94206 28.1 12.0733 26.9341 13.4511 25.1571L28.0077 30.7558C27.993 30.947 27.95 31.1301 27.95 31.3249C27.95 35.4738 31.3262 38.8499 35.4751 38.8499C39.6239 38.8499 43.0001 35.4738 43.0001 31.3249C43 27.1761 39.6238 23.8 35.475 23.8Z" fill="#69BACF"/>
</svg>
