<svg width="27" height="25" viewBox="0 0 27 25" fill="none" xmlns="http://www.w3.org/2000/svg">
<path d="M0.633154 11.632L6.72715 14.0099L9.0859 21.9404C9.23683 22.4483 9.83092 22.6361 10.2253 22.299L13.6222 19.4039C13.9782 19.1006 14.4854 19.0855 14.8575 19.3679L20.9843 24.0183C21.4061 24.3388 22.0038 24.0972 22.1095 23.5643L26.5977 0.993878C26.7132 0.411764 26.1661 -0.0738535 25.6359 0.140522L0.626013 10.2272C0.00882009 10.476 0.0141977 11.3895 0.633154 11.632ZM8.70577 12.7441L20.6157 5.07531C20.8298 4.9379 21.05 5.24047 20.8662 5.41872L11.037 14.9707C10.6915 15.3069 10.4687 15.7569 10.4055 16.2453L10.0707 18.8393C10.0264 19.1857 9.56098 19.2201 9.46957 18.8849L8.18184 14.1545C8.03436 13.615 8.24928 13.0386 8.70577 12.7441Z" fill="#69BACF"/>
</svg>
