<svg width="37" height="21" viewBox="0 0 37 21" fill="none" xmlns="http://www.w3.org/2000/svg">
<path fill-rule="evenodd" clip-rule="evenodd" d="M17.892 20.8489H20.0848C20.0848 20.8489 20.7243 20.7575 21.0898 20.3921C21.4095 20.0723 21.4095 19.4328 21.4095 19.4328C21.4095 19.4328 21.3638 16.5091 22.7343 16.0523C24.0591 15.6412 25.795 18.8846 27.6222 20.118C28.9927 21.0773 30.0434 20.8489 30.0434 20.8489L34.9313 20.8032C34.9313 20.8032 37.4895 20.6662 36.2561 18.6562C36.1647 18.4734 35.5709 17.1487 32.6472 14.4535C29.5866 11.6212 29.9977 12.078 33.6979 7.14437C35.9363 4.17505 36.85 2.34778 36.5759 1.52551C36.3018 0.794601 34.6572 0.977329 34.6572 0.977329L29.1754 1.02301C29.1754 1.02301 28.7643 0.977328 28.4445 1.16006C28.0791 1.38846 27.8963 1.7996 27.8963 1.7996C27.8963 1.7996 27.0284 4.12937 25.8863 6.09369C23.4195 10.2507 22.4602 10.4791 22.0491 10.205C21.1354 9.61118 21.3638 7.78391 21.3638 6.50482C21.3638 2.48483 21.9577 0.794601 20.1761 0.383465C19.5823 0.24642 19.1254 0.155057 17.6179 0.109375C15.6536 0.109375 14.0091 0.109375 13.0498 0.566193C12.4102 0.885965 11.9534 1.57119 12.2275 1.57119C12.5929 1.61687 13.4152 1.7996 13.8264 2.39346C14.3745 3.17005 14.3745 4.86028 14.3745 4.86028C14.3745 4.86028 14.6943 9.61118 13.5979 10.205C12.867 10.6162 11.862 9.79391 9.66931 6.00232C8.57295 4.08369 7.70499 1.93665 7.70499 1.93665C7.70499 1.93665 7.52227 1.52551 7.24818 1.34278C7.01977 1.16006 6.56295 1.02301 6.06045 1.02301L1.1725 1.06869C1.1725 1.06869 0.395909 1.06869 0.121818 1.43415C-0.152273 1.75392 0.121818 2.34778 0.121818 2.34778C0.121818 2.34778 4.23318 11.8953 8.84704 16.6919C13.0954 21.1687 17.892 20.8489 17.892 20.8489Z" fill="#69BACF"/>
</svg>
